HIERARCHY
ROOT Hips
{
    OFFSET 0.000000 0.000000 0.000000
    CHANNELS 6 Xposition Yposition Zposition Zrotation Xrotation Yrotation
    JOINT Spine
    {
        OFFSET -0.000000 7.236184 0.000000
        CHANNELS 3 Zrotation Xrotation Yrotation
        JOINT Spine1
        {
            OFFSET -0.000000 20.420147 0.000000
            CHANNELS 3 Zrotation Xrotation Yrotation
            JOINT Neck
            {
                OFFSET -0.000000 20.336288 1.848754
                CHANNELS 3 Zrotation Xrotation Yrotation
                JOINT Head
                {
                    OFFSET -0.000000 12.354461 -1.764923
                    CHANNELS 3 Zrotation Xrotation Yrotation
                    End Site
                    {
                        OFFSET -0.000000 22.061537 0.000000
                    }
                }
            }
            JOINT LeftShoulder
            {
                OFFSET 3.573296 18.396038 -0.314103
                CHANNELS 3 Zrotation Xrotation Yrotation
                JOINT LeftArm
                {
                    OFFSET 10.880760 0.000000 0.000000
                    CHANNELS 3 Zrotation Xrotation Yrotation
                    JOINT LeftForeArm
                    {
                        OFFSET 27.185530 0.000000 0.000000
                        CHANNELS 3 Zrotation Xrotation Yrotation
                        JOINT LeftHand
                        {
                            OFFSET 27.825975 0.000000 0.000000
                            CHANNELS 3 Zrotation Xrotation Yrotation
                            End Site
                            {
                                OFFSET 13.236923 0.000000 0.000000
                            }
                        }
                    }
                }
            }
            JOINT RightShoulder
            {
                OFFSET -3.474926 18.396038 -0.314103
                CHANNELS 3 Zrotation Xrotation Yrotation
                JOINT RightArm
                {
                    OFFSET -10.880760 0.000000 0.000000
                    CHANNELS 3 Zrotation Xrotation Yrotation
                    JOINT RightForeArm
                    {
                        OFFSET -27.185530 0.000000 0.000000
                        CHANNELS 3 Zrotation Xrotation Yrotation
                        JOINT RightHand
                        {
                            OFFSET -27.825975 0.000000 0.000000
                            CHANNELS 3 Zrotation Xrotation Yrotation
                            End Site
                            {
                                OFFSET -13.236923 0.000000 0.000000
                            }
                        }
                    }
                }
            }
        }
    }
    JOINT LeftUpLeg
    {
        OFFSET 8.824615 0.000000 0.000000
        CHANNELS 3 Zrotation Xrotation Yrotation
        JOINT LeftLeg
        {
            OFFSET -0.000000 -35.111282 0.000000
            CHANNELS 3 Zrotation Xrotation Yrotation
            JOINT LeftFoot
            {
                OFFSET -0.000000 -42.324711 0.000000
                CHANNELS 3 Zrotation Xrotation Yrotation
                JOINT LeftToeBase
                {
                    OFFSET -0.000000 -5.735999 13.236923
                    CHANNELS 3 Zrotation Xrotation Yrotation
                    End Site
                    {
                        OFFSET -0.000000 0.000000 3.529846
                    }
                }
            }
        }
    }
    JOINT RightUpLeg
    {
        OFFSET -8.824615 0.000000 0.000000
        CHANNELS 3 Zrotation Xrotation Yrotation
        JOINT RightLeg
        {
            OFFSET -0.000000 -35.111282 0.000000
            CHANNELS 3 Zrotation Xrotation Yrotation
            JOINT RightFoot
            {
                OFFSET -0.000000 -42.324711 0.000000
                CHANNELS 3 Zrotation Xrotation Yrotation
                JOINT RightToeBase
                {
                    OFFSET -0.000000 -5.735999 13.236923
                    CHANNELS 3 Zrotation Xrotation Yrotation
                    End Site
                    {
                        OFFSET -0.000000 0.000000 3.529846
                    }
                }
            }
        }
    }
}
MOTION
Frames:    14
Frame Time:    0.008333
-4.430381    80.874374    102.713158    0.137598    -8.572022    -176.016174    -0.775502    -15.103657    0.213243    -0.673766    7.246584    0.358668    3.127985    6.868610    -2.033682    4.812219    -12.040854    -1.210067    1.641813    17.343676    -4.920242    -40.860268    47.523857    -45.108967    -0.831471    -3.503826    -17.104752    16.984114    -3.407595    1.483127    4.088938    18.691431    -1.925734    42.999249    44.658897    38.190845    -2.504848    -9.093767    17.077600    -14.478221    -8.174319    -4.358198    10.515148    -15.059747    2.012224    -0.208300    14.687389    -2.557694    -10.072301    -6.776922    -11.422737    -0.334808    -0.390079    0.371385    -10.683518    -9.456366    -0.324497    2.715084    8.578237    4.406202    7.317443    -5.718902    -11.014274    -1.830506    0.299621    1.978996    
-4.434771    80.873215    102.697685    0.130393    -8.584073    -176.028107    -0.776635    -15.116134    0.209112    -0.668682    7.257704    0.354529    3.126378    6.844008    -2.030429    4.812829    -12.042826    -1.206987    1.642892    17.344742    -4.911080    -40.912926    47.504593    -45.060249    -0.824693    -3.535153    -17.107681    17.078720    -3.435700    1.489774    4.087043    18.694534    -1.944079    43.080437    44.591774    38.072975    -2.476577    -9.057240    17.049948    -14.482376    -8.144917    -4.337875    10.505233    -15.061760    2.032635    -0.201536    14.694400    -2.544126    -10.069659    -6.790115    -11.455630    -0.340473    -0.386431    0.377666    -10.694808    -9.454757    -0.285949    2.724498    8.569948    4.393216    7.314250    -5.726534    -11.031794    -1.833304    0.305520    1.982006    
-4.439098    80.872086    102.682259    0.123303    -8.596050    -176.040024    -0.777788    -15.128557    0.204929    -0.663490    7.268762    0.350451    3.124720    6.819310    -2.027287    4.813398    -12.044792    -1.204079    1.643811    17.345745    -4.901917    -40.965233    47.485115    -45.011620    -0.818235    -3.566602    -17.110804    17.172934    -3.463879    1.496805    4.085097    18.697838    -1.962374    43.160625    44.524712    37.955990    -2.448331    -9.021188    17.022337    -14.486411    -8.115908    -4.318121    10.495528    -15.063589    2.053227    -0.194830    14.701130    -2.530710    -10.066957    -6.803287    -11.488590    -0.346095    -0.382985    0.383900    -10.705866    -9.453041    -0.247135    2.733811    8.561401    4.379789    7.311247    -5.733986    -11.049094    -1.836036    0.311200    1.984943    
-4.443328    80.870995    102.667068    0.116283    -8.607979    -176.051895    -0.778968    -15.140441    0.200858    -0.658462    7.279056    0.346265    3.122704    6.794480    -2.024492    4.814712    -12.046291    -1.201314    1.644636    17.346855    -4.892957    -41.016972    47.465298    -44.963276    -0.812154    -3.598321    -17.113991    17.266266    -3.492280    1.504609    4.083429    18.701105    -1.980290    43.239788    44.458069    37.839626    -2.420079    -8.985866    16.994976    -14.490197    -8.087495    -4.299331    10.485965    -15.065343    2.074120    -0.188091    14.707494    -2.517768    -10.064085    -6.816417    -11.521506    -0.351816    -0.379746    0.390243    -10.716720    -9.451320    -0.208168    2.743001    8.552542    4.365593    7.308336    -5.741086    -11.065818    -1.838663    0.316868    1.987767    
-4.447394    80.869965    102.652145    0.109517    -8.619686    -176.063736    -0.780149    -15.151499    0.196742    -0.653373    7.288466    0.342190    3.120357    6.769584    -2.022135    4.816400    -12.047753    -1.198861    1.645235    17.348097    -4.884115    -41.067524    47.445023    -44.915745    -0.806833    -3.630383    -17.117397    17.358484    -3.520999    1.513557    4.081801    18.704731    -1.997886    43.317238    44.392403    37.724987    -2.391960    -8.951833    16.967758    -14.493799    -8.060189    -4.281905    10.476885    -15.066755    2.095517    -0.181439    14.713348    -2.505785    -10.060950    -6.829595    -11.554009    -0.357440    -0.376632    0.396479    -10.727108    -9.449311    -0.168805    2.751995    8.543123    4.350916    7.305754    -5.747819    -11.082381    -1.841093    0.322090    1.990381    
-4.451266    80.869019    102.637550    0.103011    -8.631219    -176.075500    -0.781311    -15.161677    0.192584    -0.648413    7.296637    0.338138    3.117611    6.744967    -2.020283    4.818744    -12.049078    -1.196767    1.645343    17.349529    -4.875670    -41.116692    47.424057    -44.868546    -0.802564    -3.662973    -17.121222    17.449091    -3.550168    1.523918    4.080653    18.708649    -2.014870    43.393147    44.327442    37.611492    -2.363745    -8.918867    16.940626    -14.497121    -8.033801    -4.265703    10.468298    -15.067814    2.117470    -0.174809    14.718541    -2.495510    -10.057456    -6.842874    -11.585326    -0.362910    -0.373624    0.402544    -10.736946    -9.447201    -0.129546    2.760646    8.533205    4.335283    7.303485    -5.754000    -11.097897    -1.843420    0.327092    1.992883    
-4.454923    80.868179    102.623322    0.096766    -8.642570    -176.087219    -0.782466    -15.170849    0.188549    -0.643533    7.303465    0.333868    3.114278    6.720206    -2.018993    4.821894    -12.049824    -1.195051    1.645001    17.350983    -4.867367    -41.164097    47.402840    -44.822128    -0.799369    -3.696315    -17.125515    17.538069    -3.579997    1.536009    4.079678    18.712938    -2.031145    43.467632    44.263298    37.499439    -2.335257    -8.886920    16.913382    -14.500389    -8.008310    -4.250757    10.460214    -15.068507    2.140110    -0.168201    14.723108    -2.488047    -10.053514    -6.856375    -11.614285    -0.368012    -0.371051    0.408201    -10.746250    -9.444904    -0.090621    2.768993    8.522643    4.319100    7.301393    -5.759561    -11.112547    -1.845603    0.332004    1.995230    
-4.458313    80.867447    102.609589    0.090876    -8.653530    -176.098755    -0.783492    -15.178686    0.184489    -0.639021    7.308610    0.329627    3.110531    6.695784    -2.018346    4.825803    -12.050183    -1.193758    1.644311    17.352400    -4.859595    -41.209167    47.381550    -44.776779    -0.797710    -3.730359    -17.130396    17.624561    -3.610463    1.550126    4.079210    18.717516    -2.046475    43.539162    44.201782    37.390148    -2.307170    -8.856995    16.886139    -14.503540    -7.984595    -4.237331    10.452757    -15.068680    2.163337    -0.161683    14.726948    -2.484582    -10.049031    -6.870104    -11.639273    -0.372453    -0.368341    0.413125    -10.754834    -9.442395    -0.052733    2.776804    8.511659    4.302699    7.299660    -5.764514    -11.126017    -1.847613    0.336147    1.997391    
-4.461481    80.866829    102.596191    0.085203    -8.664429    -176.110291    -0.784516    -15.185182    0.180215    -0.634684    7.311733    0.325419    3.106199    6.671683    -2.018334    4.830462    -12.050499    -1.192870    1.642926    17.354128    -4.852018    -41.251884    47.359604    -44.732361    -0.797897    -3.765632    -17.136028    17.709505    -3.642072    1.566673    4.078977    18.722670    -2.060913    43.611176    44.139248    37.281151    -2.277952    -8.826784    16.857435    -14.507155    -7.960719    -4.224083    10.445813    -15.068468    2.187450    -0.155135    14.730242    -2.486536    -10.043744    -6.884557    -11.658657    -0.375925    -0.365586    0.416975    -10.762921    -9.439898    -0.015840    2.784159    8.500200    4.286176    7.298088    -5.768919    -11.138353    -1.849542    0.340381    1.999466    
-4.464340    80.866364    102.583313    0.079977    -8.674848    -176.121597    -0.785396    -15.190312    0.175909    -0.630651    7.313174    0.321201    3.101362    6.647836    -2.018977    4.835874    -12.050114    -1.192483    1.641251    17.355728    -4.845157    -41.291599    47.337856    -44.689445    -0.800009    -3.801948    -17.142570    17.790813    -3.674644    1.585640    4.079149    18.728298    -2.074196    43.676765    44.083233    37.177402    -2.250492    -8.800827    16.829058    -14.511045    -7.940542    -4.213078    10.439637    -15.067657    2.212016    -0.148721    14.732981    -2.495368    -10.037726    -6.899643    -11.670129    -0.377965    -0.362333    0.419235    -10.770152    -9.437077    0.019174    2.790923    8.488214    4.269696    7.296631    -5.772518    -11.148997    -1.851245    0.344171    2.001295    
-4.466967    80.866035    102.570786    0.074926    -8.685122    -176.132874    -0.786353    -15.194290    0.171716    -0.626756    7.313060    0.316656    3.096034    6.623955    -2.020248    4.841871    -12.049539    -1.192561    1.639174    17.356976    -4.838561    -41.329163    47.315868    -44.647266    -0.804474    -3.839840    -17.150356    17.869612    -3.708703    1.607606    4.079606    18.734253    -2.086734    43.742111    44.027199    37.074856    -2.222191    -8.774831    16.798510    -14.515877    -7.920480    -4.201897    10.433923    -15.066339    2.237387    -0.142308    14.735202    -2.511526    -10.030887    -6.915714    -11.672957    -0.378328    -0.357899    0.419634    -10.777003    -9.434113    0.052713    2.797275    8.475677    4.253897    7.295171    -5.775542    -11.158862    -1.852794    0.347838    2.002960    
-4.469301    80.865860    102.558769    0.070228    -8.695041    -176.143936    -0.787374    -15.197181    0.167283    -0.622964    7.311695    0.312370    3.090074    6.600263    -2.022224    4.848692    -12.048655    -1.193114    1.636802    17.357813    -4.832774    -41.363987    47.293724    -44.606560    -0.811535    -3.879016    -17.159275    17.943975    -3.744053    1.632326    4.080281    18.740410    -2.098283    43.805206    43.973049    36.975739    -2.193794    -8.749890    16.766565    -14.522075    -7.901398    -4.191061    10.428886    -15.064495    2.263083    -0.136074    14.736876    -2.535251    -10.023458    -6.932661    -11.666048    -0.376674    -0.352102    0.417795    -10.783094    -9.431104    0.083592    2.802881    8.462964    4.238495    7.293845    -5.777867    -11.166573    -1.854134    0.351019    2.004400    
-4.471371    80.865868    102.547142    0.065782    -8.704713    -176.154907    -0.788576    -15.199122    0.162946    -0.619124    7.309371    0.307981    3.083741    6.576651    -2.024846    4.855875    -12.047906    -1.194198    1.634635    17.358047    -4.827703    -41.397060    47.271011    -44.566898    -0.821527    -3.920048    -17.169760    18.013210    -3.781263    1.660153    4.080932    18.746744    -2.109135    43.865257    43.921940    36.880199    -2.165679    -8.726637    16.733292    -14.529951    -7.883843    -4.180774    10.424405    -15.062131    2.289202    -0.129961    14.738059    -2.566231    -10.015594    -6.950736    -11.649459    -0.372657    -0.344576    0.413335    -10.788676    -9.427938    0.112197    2.807961    8.449855    4.224183    7.292479    -5.779605    -11.173141    -1.855178    0.353917    2.005521    
-4.473154    80.866043    102.535988    0.061648    -8.714000    -176.165649    -0.790020    -15.200302    0.158701    -0.615118    7.306430    0.303557    3.076976    6.552824    -2.028055    4.863357    -12.046774    -1.195813    1.632642    17.357683    -4.823268    -41.428070    47.247849    -44.528721    -0.834619    -3.962899    -17.181995    18.075474    -3.820377    1.690921    4.081559    18.753038    -2.119407    43.922779    43.873196    36.788689    -2.137613    -8.704372    16.698931    -14.539764    -7.867180    -4.170659    10.420549    -15.059127    2.315475    -0.123989    14.738538    -2.603275    -10.007667    -6.969623    -11.624083    -0.366543    -0.334686    0.406546    -10.793556    -9.424656    0.137506    2.812160    8.436584    4.211069    7.291038    -5.780643    -11.177707    -1.856011    0.356628    2.006414    
